<?xml version="1.0" encoding="UTF-8" standalone="no"?>
<svg
   width="47.113285"
   height="46.632301"
   viewBox="0 0 47.113285 46.632301"
   fill="none"
   version="1.1"
   id="svg69"
   sodipodi:docname="Logo (1).svg"
   xmlns:inkscape="http://www.inkscape.org/namespaces/inkscape"
   xmlns:sodipodi="http://sodipodi.sourceforge.net/DTD/sodipodi-0.dtd"
   xmlns="http://www.w3.org/2000/svg"
   xmlns:svg="http://www.w3.org/2000/svg">
  <sodipodi:namedview
     id="namedview69"
     pagecolor="#ffffff"
     bordercolor="#000000"
     borderopacity="0.25"
     inkscape:showpageshadow="2"
     inkscape:pageopacity="0.0"
     inkscape:pagecheckerboard="0"
     inkscape:deskcolor="#d1d1d1">
    <inkscape:page
       x="0"
       y="0"
       width="47.113285"
       height="46.632301"
       id="page2"
       margin="0"
       bleed="0" />
  </sodipodi:namedview>
  <path
     d="m 23.201283,15.5833 c -1.4496,-3.7448 -1.6912,-9.18084 -1.3288,-11.95927 l -0.1208,-0.604 0.3624,0.2416 c 0.4832,-1.69122 1.0872,-2.778426 1.4496,-3.26163 0.3624,0.483204 0.9664,1.57041 1.4496,3.26163 l 0.3624,-0.2416 -0.1208,0.604 c 0.3624,2.77843 0.1208,8.21447 -1.3288,11.95927 z"
     fill="url(#paint0_linear_1487_18)"
     id="path1"
     style="fill:url(#paint0_linear_1487_18)" />
  <path
     d="m 24.954383,15.3328 c -0.6129,-3.811 -0.0894,-7.77029 0.6812,-9.83561 l -0.0033,-0.61595 0.3096,0.30631 c 0.6093,-1.23525 1.3866,-2.06865 1.6929,-2.3783 0.1681,0.40185 0.5766,1.46575 0.6788,2.8393 l 0.4018,-0.16802 -0.2338,0.56986 c -0.0592,2.20362 -1.057,6.07071 -3.0529,9.37461 z"
     fill="url(#paint1_linear_1487_18)"
     id="path2"
     style="fill:url(#paint1_linear_1487_18)" />
  <path
     d="m 27.693283,16.6917 c 0.8053,-3.934 3.5412,-8.63762 5.3483,-10.77896 l 0.225,-0.57342 0.1742,0.39918 c 1.3209,-1.16143 2.4169,-1.74945 2.983,-1.95999 0.0436,0.60243 -0.0361,1.84359 -0.5441,3.52755 l 0.4355,-0.0073 -0.4282,0.44279 c -1.1973,2.53325 -4.3398,6.97555 -7.584,9.34205 z"
     fill="url(#paint2_linear_1487_18)"
     id="path3"
     style="fill:url(#paint2_linear_1487_18)" />
  <path
     d="m 29.314983,17.4332 c 1.5449,-3.5373 4.126,-6.5849 5.891,-7.90565 l 0.3302,-0.51996 0.0949,0.4251 c 1.1804,-0.70969 2.2849,-0.9905 2.71,-1.08536 -0.0759,0.42888 -0.3075,1.54474 -0.9642,2.75547 l 0.4289,0.0759 -0.5048,0.353 c -1.2412,1.8217 -4.1715,4.5353 -7.6369,6.2355 z"
     fill="url(#paint3_linear_1487_18)"
     id="path4"
     style="fill:url(#paint3_linear_1487_18)" />
  <path
     d="m 30.877383,20.0553 c 2.804,-2.8745 7.6482,-5.3529 10.3261,-6.1776 l 0.4992,-0.3609 -0.0692,0.4301 c 1.7391,-0.2632 2.979,-0.1655 3.5691,-0.0366 -0.289,0.5304 -1.027,1.5315 -2.3645,2.6737 l 0.3703,0.2293 -0.5996,0.141 c -2.3767,1.4841 -7.4217,3.5229 -11.4303,3.7603 z"
     fill="url(#paint4_linear_1487_18)"
     id="path5"
     style="fill:url(#paint4_linear_1487_18)" />
  <path
     d="m 31.839083,21.5537 c 3.2118,-2.141 7.0307,-3.3098 9.2295,-3.467 l 0.5589,-0.2589 -0.15,0.4089 c 1.3768,0.041 2.4578,0.4018 2.8667,0.5517 -0.2957,0.3198 -1.0937,1.1334 -2.3006,1.7971 l 0.3198,0.2957 -0.6155,0.0241 c -2.029,0.8617 -5.9611,1.5608 -9.7956,1.1181 z"
     fill="url(#paint5_linear_1487_18)"
     id="path6"
     style="fill:url(#paint5_linear_1487_18)" />
  <path
     d="m 31.740083,24.608 c 3.913,-0.9021 9.3281,-0.3678 12.0267,0.3863 l 0.615,-0.0337 -0.2907,0.3244 c 1.6053,0.7189 2.5955,1.4715 3.0222,1.8989 -0.5299,0.29 -1.6919,0.7332 -3.4347,0.9708 l 0.1876,0.3931 -0.5807,-0.2055 c -2.8017,-0.0366 -8.1481,-1.0492 -11.6486,-3.0169 z"
     fill="url(#paint6_linear_1487_18)"
     id="path7"
     style="fill:url(#paint6_linear_1487_18)" />
  <path
     d="m 31.740483,26.3874 c 3.8595,-0.0644 7.704,1.0171 9.6387,2.0737 l 0.6101,0.0844 -0.3472,0.2629 c 1.136,0.7788 1.8503,1.6668 2.1132,2.0141 -0.4217,0.1091 -1.5329,0.3621 -2.907,0.2678 l 0.1091,0.4217 -0.5307,-0.3126 c -2.1728,-0.3721 -5.8586,-1.9099 -8.8449,-4.3556 z"
     fill="url(#paint7_linear_1487_18)"
     id="path8"
     style="fill:url(#paint7_linear_1487_18)" />
  <path
     d="m 30.005083,28.9037 c 3.7794,1.3568 8.0459,4.7342 9.9083,6.8275 l 0.5356,0.3043 -0.4199,0.1157 c 0.9617,1.4727 1.3878,2.6411 1.5156,3.2314 -0.6025,-0.0425 -1.8197,-0.298 -3.4142,-1.0404 l -0.0548,0.4321 -0.3773,-0.4868 c -2.3371,-1.5456 -6.2872,-5.2882 -8.168,-8.8361 z"
     fill="url(#paint8_linear_1487_18)"
     id="path9"
     style="fill:url(#paint8_linear_1487_18)" />
  <path
     d="m 29.038383,30.3994 c 3.2814,2.0325 5.9308,5.0209 6.987,6.9559 l 0.4677,0.4008 -0.4343,0.0334 c 0.5345,1.2694 0.6553,2.4027 0.6887,2.8369 -0.4137,-0.1362 -1.4852,-0.5242 -2.5902,-1.3464 l -0.1362,0.4137 -0.2775,-0.5499 c -1.6266,-1.4878 -3.8957,-4.7743 -5.0855,-8.4463 z"
     fill="url(#paint9_linear_1487_18)"
     id="path10"
     style="fill:url(#paint9_linear_1487_18)" />
  <path
     d="m 26.219583,31.5778 c 2.4457,3.1849 4.2087,8.3328 4.6436,11.1008 l 0.2861,0.5455 -0.4158,-0.1297 c 0.0127,1.7588 -0.2606,2.9722 -0.4722,3.5379 -0.4839,-0.3616 -1.3697,-1.2346 -2.3097,-2.7213 l -0.2796,0.3339 -0.0543,-0.6136 c -1.1303,-2.5638 -2.4297,-7.8478 -2.0936,-11.8493 z"
     fill="url(#paint10_linear_1487_18)"
     id="path11"
     style="fill:url(#paint10_linear_1487_18)" />
  <path
     d="m 24.598483,32.3146 c 1.6615,3.4841 2.2745,7.4305 2.1168,9.6293 l 0.1767,0.5901 -0.3834,-0.2067 c -0.2367,1.3568 -0.7478,2.3754 -0.9545,2.7588 -0.2744,-0.3382 -0.966,-1.244 -1.451,-2.5331 l -0.3382,0.2744 0.0638,-0.6127 c -0.5639,-2.131 -0.6958,-6.1226 0.2887,-9.8549 z"
     fill="url(#paint11_linear_1487_18)"
     id="path12"
     style="fill:url(#paint11_linear_1487_18)" />
  <path
     d="m 21.592083,31.7818 c 0.3361,4.0015 -0.9632,9.2855 -2.0936,11.8494 l -0.0542,0.6136 -0.2797,-0.3339 c -0.94,1.4866 -1.8258,2.3597 -2.3096,2.7212 -0.2116,-0.5657 -0.4849,-1.779 -0.4722,-3.5379 l -0.4158,0.1298 0.2861,-0.5455 c 0.4348,-2.7681 2.1978,-7.9159 4.6436,-11.1008 z"
     fill="url(#paint12_linear_1487_18)"
     id="path13"
     style="fill:url(#paint12_linear_1487_18)" />
  <path
     d="m 19.833483,31.5264 c -0.4853,3.8293 -2.1028,7.4809 -3.424,9.2455 l -0.1703,0.592 -0.2109,-0.3812 c -0.9325,1.0136 -1.9131,1.5944 -2.2942,1.8052 -0.0481,-0.4329 -0.1403,-1.5688 0.1485,-2.9155 l -0.4329,0.048 0.3849,-0.4809 c 0.6774,-2.0978 2.7241,-5.5272 5.5698,-8.1352 z"
     fill="url(#paint13_linear_1487_18)"
     id="path14"
     style="fill:url(#paint13_linear_1487_18)" />
  <path
     d="m 17.586283,29.4513 c -1.8808,3.5479 -5.8308,7.2904 -8.1679,8.836 l -0.37736,0.4869 -0.05474,-0.4321 c -1.59455,0.7423 -2.81175,0.9978 -3.41425,1.0404 0.12785,-0.5903 0.55395,-1.7588 1.51563,-3.2315 l -0.41992,-0.1157 0.53558,-0.3042 c 1.86244,-2.0934 6.12886,-5.4707 9.90836,-6.8276 z"
     fill="url(#paint14_linear_1487_18)"
     id="path15"
     style="fill:url(#paint14_linear_1487_18)" />
  <path
     d="m 16.245683,28.284 c -2.4787,2.959 -5.8137,5.1562 -7.87924,5.9263 l -0.46332,0.4059 0.02872,-0.4346 c -1.33254,0.3484 -2.47141,0.3068 -2.90602,0.2781 0.19366,-0.3902 0.73017,-1.3956 1.70129,-2.3724 l -0.39013,-0.1936 0.5838,-0.1965 c 1.7041,-1.3984 5.28,-3.1767 9.084,-3.832 z"
     fill="url(#paint15_linear_1487_18)"
     id="path16"
     style="fill:url(#paint15_linear_1487_18)" />
  <path
     d="m 15.476383,25.3255 c -3.5005,1.9677 -8.84687,2.9803 -11.64859,3.0169 l -0.58067,0.2055 0.18758,-0.3931 C 1.691943,27.9171 0.52985201,27.474 1.1363443e-8,27.184 0.42672401,26.7565 1.416933,26.004 3.022193,25.2851 l -0.29071,-0.3244 0.61505,0.0336 c 2.69859,-0.754 8.11375,-1.2883 12.02665,-0.3863 z"
     fill="url(#paint16_linear_1487_18)"
     id="path17"
     style="fill:url(#paint16_linear_1487_18)" />
  <path
     d="m 14.981483,23.6174 c -3.685,1.1489 -7.67848,1.1941 -9.83244,0.7251 l -0.60921,0.091 0.25914,-0.3501 c -1.30938,-0.4274 -2.2449,-1.0782 -2.59498,-1.3373 0.37385,-0.2235 1.36881,-0.7792 2.71384,-1.0758 l -0.22348,-0.3739 0.59733,0.1504 c 2.18962,-0.255 6.1593,0.1825 9.7136,1.688 z"
     fill="url(#paint17_linear_1487_18)"
     id="path18"
     style="fill:url(#paint17_linear_1487_18)" />
  <path
     d="m 15.937483,20.7146 c -4.0086,-0.2374 -9.05358,-2.2762 -11.43026,-3.7602 l -0.5996,-0.1411 0.37034,-0.2293 c -1.33756,-1.1422 -2.07553,-2.1433 -2.36448,-2.6737 0.5901,-0.1289 1.82998,-0.2266 3.56907,0.0366 l -0.06919,-0.43 0.49922,0.3608 c 2.67782,0.8248 7.5221,3.3031 10.3261,6.1776 z"
     fill="url(#paint18_linear_1487_18)"
     id="path19"
     style="fill:url(#paint18_linear_1487_18)" />
  <path
     d="m 16.439583,19.0079 c -3.7212,-1.0259 -7.10503,-3.1471 -8.66345,-4.7062 l -0.56166,-0.2529 0.40727,-0.1544 c -0.87042,-1.0674 -1.30552,-2.1207 -1.45991,-2.528 0.43533,0.0141 1.57278,0.0846 2.86462,0.5623 l 0.01414,-0.4353 0.42119,0.4495 c 1.9798,0.9693 5.0828,3.4837 7.2587,6.6719 z"
     fill="url(#paint19_linear_1487_18)"
     id="path20"
     style="fill:url(#paint19_linear_1487_18)" />
  <path
     d="m 18.810183,17.0835 c -3.2443,-2.3665 -6.3867,-6.8088 -7.584,-9.34208 l -0.4282,-0.44279 0.4355,0.0073 c -0.508,-1.68396 -0.5877,-2.92512 -0.5441,-3.52755 0.5661,0.21054 1.6621,0.79855 2.983,1.95999 l 0.1742,-0.39919 0.2249,0.57343 c 1.8072,2.14134 4.5431,6.84489 5.3484,10.77899 z"
     fill="url(#paint20_linear_1487_18)"
     id="path21"
     style="fill:url(#paint20_linear_1487_18)" />
  <path
     d="m 20.156683,15.9198 c -2.5761,-2.8745 -4.2765,-6.48824 -4.7449,-8.64231 l -0.3358,-0.51636 0.4261,0.09026 c -0.1553,-1.36856 0.0479,-2.48992 0.1382,-2.91602 0.3586,0.2472 1.2775,0.92132 2.1061,2.02153 l 0.2472,-0.35861 0.1114,0.60581 c 1.1417,1.88573 2.3932,5.6783 2.5005,9.5368 z"
     fill="url(#paint21_linear_1487_18)"
     id="path22"
     style="fill:url(#paint21_linear_1487_18)" />
  <defs
     id="defs69">
    <linearGradient
       id="paint0_linear_1487_18"
       x1="26.041201"
       y1="9.5844498"
       x2="21.8298"
       y2="9.1659899"
       gradientUnits="userSpaceOnUse"
       gradientTransform="translate(-0.26151699)">
      <stop
         stop-color="#EFEDFE"
         id="stop26" />
      <stop
         offset="1"
         stop-color="white"
         id="stop27" />
    </linearGradient>
    <linearGradient
       id="paint1_linear_1487_18"
       x1="28.2861"
       y1="10.908"
       x2="24.7672"
       y2="9.83179"
       gradientUnits="userSpaceOnUse"
       gradientTransform="translate(-0.26151699)">
      <stop
         stop-color="#EFEDFE"
         id="stop28" />
      <stop
         offset="1"
         stop-color="white"
         id="stop29" />
    </linearGradient>
    <linearGradient
       id="paint2_linear_1487_18"
       x1="33.367298"
       y1="13.0393"
       x2="30.0508"
       y2="10.4103"
       gradientUnits="userSpaceOnUse"
       gradientTransform="translate(-0.26151699)">
      <stop
         stop-color="#EFEDFE"
         id="stop30" />
      <stop
         offset="1"
         stop-color="white"
         id="stop31" />
    </linearGradient>
    <linearGradient
       id="paint3_linear_1487_18"
       x1="34.551601"
       y1="15.371"
       x2="32.173302"
       y2="12.563"
       gradientUnits="userSpaceOnUse"
       gradientTransform="translate(-0.26151699)">
      <stop
         stop-color="#EFEDFE"
         id="stop32" />
      <stop
         offset="1"
         stop-color="white"
         id="stop33" />
    </linearGradient>
    <linearGradient
       id="paint4_linear_1487_18"
       x1="37.666801"
       y1="19.9081"
       x2="36.2976"
       y2="15.9036"
       gradientUnits="userSpaceOnUse"
       gradientTransform="translate(-0.26151699)">
      <stop
         stop-color="#EFEDFE"
         id="stop34" />
      <stop
         offset="1"
         stop-color="white"
         id="stop35" />
    </linearGradient>
    <linearGradient
       id="paint5_linear_1487_18"
       x1="37.401001"
       y1="22.5079"
       x2="36.9179"
       y2="18.8599"
       gradientUnits="userSpaceOnUse"
       gradientTransform="translate(-0.26151699)">
      <stop
         stop-color="#EFEDFE"
         id="stop36" />
      <stop
         offset="1"
         stop-color="white"
         id="stop37" />
    </linearGradient>
    <linearGradient
       id="paint6_linear_1487_18"
       x1="37.572601"
       y1="28.013599"
       x2="38.585999"
       y2="23.904699"
       gradientUnits="userSpaceOnUse"
       gradientTransform="translate(-0.26151699)">
      <stop
         stop-color="#EFEDFE"
         id="stop38" />
      <stop
         offset="1"
         stop-color="white"
         id="stop39" />
    </linearGradient>
    <linearGradient
       id="paint7_linear_1487_18"
       x1="35.945"
       y1="30.055901"
       x2="37.510899"
       y2="26.726"
       gradientUnits="userSpaceOnUse"
       gradientTransform="translate(-0.26151699)">
      <stop
         stop-color="#EFEDFE"
         id="stop40" />
      <stop
         offset="1"
         stop-color="white"
         id="stop41" />
    </linearGradient>
    <linearGradient
       id="paint8_linear_1487_18"
       x1="33.111698"
       y1="34.780701"
       x2="36.185799"
       y2="31.872101"
       gradientUnits="userSpaceOnUse"
       gradientTransform="translate(-0.26151699)">
      <stop
         stop-color="#EFEDFE"
         id="stop42" />
      <stop
         offset="1"
         stop-color="white"
         id="stop43" />
    </linearGradient>
    <linearGradient
       id="paint9_linear_1487_18"
       x1="30.6332"
       y1="35.617298"
       x2="33.750999"
       y2="33.662701"
       gradientUnits="userSpaceOnUse"
       gradientTransform="translate(-0.26151699)">
      <stop
         stop-color="#EFEDFE"
         id="stop44" />
      <stop
         offset="1"
         stop-color="white"
         id="stop45" />
    </linearGradient>
    <linearGradient
       id="paint10_linear_1487_18"
       x1="25.696899"
       y1="38.060101"
       x2="29.8556"
       y2="37.275398"
       gradientUnits="userSpaceOnUse"
       gradientTransform="translate(-0.26151699)">
      <stop
         stop-color="#EFEDFE"
         id="stop46" />
      <stop
         offset="1"
         stop-color="white"
         id="stop47" />
    </linearGradient>
    <linearGradient
       id="paint11_linear_1487_18"
       x1="23.1604"
       y1="37.425098"
       x2="26.84"
       y2="37.466499"
       gradientUnits="userSpaceOnUse"
       gradientTransform="translate(-0.26151699)">
      <stop
         stop-color="#EFEDFE"
         id="stop48" />
      <stop
         offset="1"
         stop-color="white"
         id="stop49" />
    </linearGradient>
    <linearGradient
       id="paint12_linear_1487_18"
       x1="17.690001"
       y1="36.8116"
       x2="21.6129"
       y2="38.3993"
       gradientUnits="userSpaceOnUse"
       gradientTransform="translate(-0.26151699)">
      <stop
         stop-color="#EFEDFE"
         id="stop50" />
      <stop
         offset="1"
         stop-color="white"
         id="stop51" />
    </linearGradient>
    <linearGradient
       id="paint13_linear_1487_18"
       x1="15.9028"
       y1="34.9072"
       x2="18.976101"
       y2="36.931099"
       gradientUnits="userSpaceOnUse"
       gradientTransform="translate(-0.26151699)">
      <stop
         stop-color="#EFEDFE"
         id="stop52" />
      <stop
         offset="1"
         stop-color="white"
         id="stop53" />
    </linearGradient>
    <linearGradient
       id="paint14_linear_1487_18"
       x1="11.6257"
       y1="31.4312"
       x2="14.0674"
       y2="34.887901"
       gradientUnits="userSpaceOnUse"
       gradientTransform="translate(-0.26151699)">
      <stop
         stop-color="#EFEDFE"
         id="stop54" />
      <stop
         offset="1"
         stop-color="white"
         id="stop55" />
    </linearGradient>
    <linearGradient
       id="paint15_linear_1487_18"
       x1="11.1527"
       y1="28.861401"
       x2="12.6437"
       y2="32.225601"
       gradientUnits="userSpaceOnUse"
       gradientTransform="translate(-0.26151699)">
      <stop
         stop-color="#EFEDFE"
         id="stop56" />
      <stop
         offset="1"
         stop-color="white"
         id="stop57" />
    </linearGradient>
    <linearGradient
       id="paint16_linear_1487_18"
       x1="9.4331703"
       y1="23.6269"
       x2="9.6181602"
       y2="27.8549"
       gradientUnits="userSpaceOnUse"
       gradientTransform="translate(-0.26151699)">
      <stop
         stop-color="#EFEDFE"
         id="stop58" />
      <stop
         offset="1"
         stop-color="white"
         id="stop59" />
    </linearGradient>
    <linearGradient
       id="paint17_linear_1487_18"
       x1="10.4264"
       y1="21.208"
       x2="9.8618202"
       y2="24.8442"
       gradientUnits="userSpaceOnUse"
       gradientTransform="translate(-0.26151699)">
      <stop
         stop-color="#EFEDFE"
         id="stop60" />
      <stop
         offset="1"
         stop-color="white"
         id="stop61" />
    </linearGradient>
    <linearGradient
       id="paint18_linear_1487_18"
       x1="11.8137"
       y1="15.8769"
       x2="9.6833096"
       y2="19.533701"
       gradientUnits="userSpaceOnUse"
       gradientTransform="translate(-0.26151699)">
      <stop
         stop-color="#EFEDFE"
         id="stop62" />
      <stop
         offset="1"
         stop-color="white"
         id="stop63" />
    </linearGradient>
    <linearGradient
       id="paint19_linear_1487_18"
       x1="13.9519"
       y1="14.3768"
       x2="11.5109"
       y2="17.1304"
       gradientUnits="userSpaceOnUse"
       gradientTransform="translate(-0.26151699)">
      <stop
         stop-color="#EFEDFE"
         id="stop64" />
      <stop
         offset="1"
         stop-color="white"
         id="stop65" />
    </linearGradient>
    <linearGradient
       id="paint20_linear_1487_18"
       x1="17.9972"
       y1="10.643"
       x2="14.2282"
       y2="12.5679"
       gradientUnits="userSpaceOnUse"
       gradientTransform="translate(-0.26151699)">
      <stop
         stop-color="#EFEDFE"
         id="stop66" />
      <stop
         offset="1"
         stop-color="white"
         id="stop67" />
    </linearGradient>
    <linearGradient
       id="paint21_linear_1487_18"
       x1="20.6085"
       y1="10.5375"
       x2="17.066401"
       y2="11.5348"
       gradientUnits="userSpaceOnUse"
       gradientTransform="translate(-0.26151699)">
      <stop
         stop-color="#EFEDFE"
         id="stop68" />
      <stop
         offset="1"
         stop-color="white"
         id="stop69" />
    </linearGradient>
  </defs>
</svg>
