<svg width="48" height="48" viewBox="0 0 48 48" fill="none" xmlns="http://www.w3.org/2000/svg">
<path d="M23.4628 15.5835C22.0132 11.8386 21.7716 6.40258 22.134 3.62415L22.0132 3.02015L22.3756 3.26175C22.8588 1.57054 23.4628 0.483326 23.8252 0.00012207C24.1876 0.483326 24.7916 1.57054 25.2748 3.26175L25.6372 3.02015L25.5164 3.62415C25.8788 6.40258 25.6372 11.8386 24.1876 15.5835H23.4628Z" fill="url(#paint0_linear_1488_72)"/>
<path d="M25.2198 15.3327C24.6069 11.5217 25.1304 7.56239 25.901 5.49707L25.8977 4.88111L26.2073 5.18743C26.8166 3.95218 27.5939 3.11878 27.9003 2.80913C28.0683 3.21098 28.4768 4.27488 28.579 5.64843L28.9808 5.48041L28.747 6.05027C28.6878 8.25389 27.69 12.121 25.6941 15.4249L25.2198 15.3327Z" fill="url(#paint1_linear_1488_72)"/>
<path d="M27.9548 16.6917C28.7601 12.7577 31.496 8.05408 33.3031 5.91274L33.5281 5.33932L33.7023 5.7385C35.0232 4.57707 36.1192 3.98905 36.6853 3.77851C36.7289 4.38094 36.6492 5.6221 36.1412 7.30606L36.5767 7.29876L36.1485 7.74155C34.9512 10.2748 31.8087 14.7171 28.5645 17.0836L27.9548 16.6917Z" fill="url(#paint2_linear_1488_72)"/>
<path d="M29.5765 17.4332C31.1214 13.8959 33.7025 10.8483 35.4675 9.52755L35.7977 9.00759L35.8926 9.43269C37.073 8.723 38.1775 8.44219 38.6026 8.34733C38.5267 8.77621 38.2951 9.89207 37.6384 11.1028L38.0673 11.1787L37.5625 11.5317C36.3213 13.3534 33.391 16.067 29.9256 17.7672L29.5765 17.4332Z" fill="url(#paint3_linear_1488_72)"/>
<path d="M31.1428 20.0553C33.9468 17.1808 38.791 14.7024 41.4689 13.8777L41.9681 13.5168L41.8989 13.9469C43.638 13.6837 44.8779 13.7814 45.468 13.9103C45.179 14.4407 44.4411 15.4418 43.1035 16.584L43.4738 16.8133L42.8742 16.9543C40.4976 18.4384 35.4525 20.4772 31.444 20.7146L31.1428 20.0553Z" fill="url(#paint4_linear_1488_72)"/>
<path d="M32.1045 21.5535C35.3163 19.4126 39.1352 18.2437 41.334 18.0866L41.8929 17.8277L41.7429 18.2366C43.1197 18.2776 44.2007 18.6383 44.6096 18.7883C44.3139 19.1081 43.5159 19.9217 42.309 20.5854L42.6288 20.8811L42.0133 20.9051C39.9843 21.7669 36.0522 22.466 32.2177 22.0233L32.1045 21.5535Z" fill="url(#paint5_linear_1488_72)"/>
<path d="M32.0016 24.608C35.9146 23.7059 41.3297 24.2402 44.0283 24.9943L44.6433 24.9606L44.3526 25.285C45.9579 26.0039 46.9481 26.7565 47.3748 27.1839C46.8449 27.4739 45.6829 27.9171 43.9401 28.1547L44.1277 28.5478L43.547 28.3423C40.7453 28.3057 35.3989 27.2931 31.8984 25.3254L32.0016 24.608Z" fill="url(#paint6_linear_1488_72)"/>
<path d="M32.002 26.3873C35.8615 26.3228 39.706 27.4043 41.6407 28.461L42.2508 28.5454L41.9036 28.8083C43.0396 29.5871 43.7539 30.4751 44.0168 30.8223C43.5951 30.9315 42.4839 31.1845 41.1098 31.0902L41.2189 31.5118L40.6882 31.1993C38.5154 30.8272 34.8296 29.2893 31.8433 26.8436L32.002 26.3873Z" fill="url(#paint7_linear_1488_72)"/>
<path d="M30.2666 28.9037C34.046 30.2605 38.3125 33.6379 40.1749 35.7312L40.7105 36.0355L40.2906 36.1512C41.2523 37.6239 41.6784 38.7923 41.8062 39.3826C41.2037 39.3401 39.9865 39.0846 38.392 38.3422L38.3372 38.7743L37.9599 38.2875C35.6228 36.7419 31.6727 32.9993 29.7919 29.4514L30.2666 28.9037Z" fill="url(#paint8_linear_1488_72)"/>
<path d="M29.2999 30.3994C32.5813 32.4319 35.2307 35.4203 36.2869 37.3553L36.7546 37.7561L36.3203 37.7895C36.8548 39.0589 36.9756 40.1922 37.009 40.6264C36.5953 40.4902 35.5238 40.1022 34.4188 39.28L34.2826 39.6937L34.0051 39.1438C32.3785 37.656 30.1094 34.3695 28.9196 30.6975L29.2999 30.3994Z" fill="url(#paint9_linear_1488_72)"/>
<path d="M26.4811 31.5777C28.9268 34.7626 30.6898 39.9105 31.1247 42.6785L31.4108 43.224L30.995 43.0943C31.0077 44.8531 30.7344 46.0664 30.5228 46.6322C30.0389 46.2706 29.1531 45.3975 28.2131 43.9109L27.9335 44.2448L27.8792 43.6312C26.7489 41.0674 25.4495 35.7834 25.7856 31.7819L26.4811 31.5777Z" fill="url(#paint10_linear_1488_72)"/>
<path d="M24.86 32.3145C26.5215 35.7986 27.1345 39.745 26.9768 41.9438L27.1535 42.5339L26.7701 42.3272C26.5334 43.684 26.0223 44.7026 25.8156 45.086C25.5412 44.7478 24.8496 43.842 24.3646 42.5528L24.0264 42.8272L24.0902 42.2146C23.5263 40.0835 23.3944 36.092 24.3789 32.3597L24.86 32.3145Z" fill="url(#paint11_linear_1488_72)"/>
<path d="M21.8536 31.7817C22.1897 35.7832 20.8904 41.0672 19.76 43.6311L19.7058 44.2446L19.4261 43.9107C18.4861 45.3974 17.6003 46.2704 17.1165 46.632C16.9049 46.0663 16.6316 44.853 16.6443 43.0941L16.2285 43.2239L16.5146 42.6783C16.9494 39.9103 18.7124 34.7624 21.1582 31.5775L21.8536 31.7817Z" fill="url(#paint12_linear_1488_72)"/>
<path d="M20.095 31.5264C19.6097 35.3557 17.9922 39.0073 16.671 40.7719L16.5007 41.3639L16.2898 40.9827C15.3573 41.9963 14.3767 42.5771 13.9956 42.7879C13.9475 42.355 13.8553 41.2191 14.1441 39.8724L13.7112 39.9204L14.0961 39.4395C14.7735 37.3417 16.8202 33.9123 19.6659 31.3043L20.095 31.5264Z" fill="url(#paint13_linear_1488_72)"/>
<path d="M17.8478 29.4514C15.967 32.9993 12.017 36.7418 9.6799 38.2874L9.30254 38.7743L9.2478 38.3422C7.65325 39.0845 6.43605 39.3401 5.83355 39.3826C5.9614 38.7923 6.3875 37.6238 7.34918 36.1511L6.92926 36.0355L7.46484 35.7312C9.32728 33.6378 13.5937 30.2605 17.3732 28.9036L17.8478 29.4514Z" fill="url(#paint14_linear_1488_72)"/>
<path d="M16.5072 28.284C14.0285 31.243 10.6935 33.4402 8.62796 34.2103L8.16464 34.6162L8.19336 34.1816C6.86082 34.53 5.72195 34.4884 5.28734 34.4597C5.481 34.0695 6.01751 33.0641 6.98863 32.0873L6.5985 31.8937L7.1823 31.6972C8.8864 30.2988 12.4623 28.5205 16.2663 27.8652L16.5072 28.284Z" fill="url(#paint15_linear_1488_72)"/>
<path d="M15.7418 25.3255C12.2413 27.2932 6.89494 28.3058 4.09322 28.3424L3.51254 28.5479L3.70012 28.1548C1.95736 27.9171 0.795275 27.474 0.265423 27.184C0.692147 26.7565 1.68236 26.004 3.28761 25.2851L2.9969 24.9607L3.61195 24.9943C6.31055 24.2403 11.7257 23.706 15.6387 24.608L15.7418 25.3255Z" fill="url(#paint16_linear_1488_72)"/>
<path d="M15.243 23.6174C11.558 24.7663 7.56452 24.8115 5.41056 24.3425L4.80135 24.4335L5.06049 24.0834C3.75111 23.656 2.81559 23.0052 2.46551 22.7461C2.83936 22.5226 3.83432 21.9669 5.17935 21.6703L4.95587 21.2964L5.5532 21.4468C7.74282 21.1918 11.7125 21.6293 15.2668 23.1348L15.243 23.6174Z" fill="url(#paint17_linear_1488_72)"/>
<path d="M16.199 20.7146C12.1904 20.4772 7.14542 18.4384 4.76874 16.9544L4.16914 16.8133L4.53948 16.584C3.20192 15.4418 2.46395 14.4407 2.175 13.9103C2.7651 13.7814 4.00498 13.6837 5.74407 13.9469L5.67488 13.5169L6.1741 13.8777C8.85192 14.7025 13.6962 17.1808 16.5002 20.0553L16.199 20.7146Z" fill="url(#paint18_linear_1488_72)"/>
<path d="M16.7011 19.0079C12.9799 17.982 9.59607 15.8608 8.03765 14.3017L7.47599 14.0488L7.88326 13.8944C7.01284 12.827 6.57774 11.7737 6.42335 11.3664C6.85868 11.3805 7.99613 11.451 9.28797 11.9287L9.30211 11.4934L9.7233 11.9429C11.7031 12.9122 14.8061 15.4266 16.982 18.6148L16.7011 19.0079Z" fill="url(#paint19_linear_1488_72)"/>
<path d="M19.0717 17.0835C15.8274 14.717 12.685 10.2747 11.4877 7.74142L11.0595 7.29863L11.495 7.30593C10.987 5.62197 10.9073 4.38081 10.9509 3.77838C11.517 3.98892 12.613 4.57693 13.9339 5.73837L14.1081 5.33918L14.333 5.91261C16.1402 8.05395 18.8761 12.7575 19.6814 16.6916L19.0717 17.0835Z" fill="url(#paint20_linear_1488_72)"/>
<path d="M20.4221 15.9199C17.846 13.0454 16.1456 9.43169 15.6772 7.27761L15.3414 6.76125L15.7675 6.85151C15.6122 5.48295 15.8155 4.36159 15.9057 3.93549C16.2643 4.1827 17.1832 4.85681 18.0118 5.95702L18.259 5.59841L18.3704 6.20422C19.5121 8.08995 20.7636 11.8826 20.871 15.741L20.4221 15.9199Z" fill="url(#paint21_linear_1488_72)"/>
<defs>
<linearGradient id="paint0_linear_1488_72" x1="26.0412" y1="9.58458" x2="21.8298" y2="9.16611" gradientUnits="userSpaceOnUse">
<stop stop-color="#EFEDFE"/>
<stop offset="1" stop-color="white"/>
</linearGradient>
<linearGradient id="paint1_linear_1488_72" x1="28.29" y1="10.9079" x2="24.7711" y2="9.83166" gradientUnits="userSpaceOnUse">
<stop stop-color="#EFEDFE"/>
<stop offset="1" stop-color="white"/>
</linearGradient>
<linearGradient id="paint2_linear_1488_72" x1="33.3673" y1="13.0393" x2="30.0508" y2="10.4103" gradientUnits="userSpaceOnUse">
<stop stop-color="#EFEDFE"/>
<stop offset="1" stop-color="white"/>
</linearGradient>
<linearGradient id="paint3_linear_1488_72" x1="34.5516" y1="15.371" x2="32.1733" y2="12.563" gradientUnits="userSpaceOnUse">
<stop stop-color="#EFEDFE"/>
<stop offset="1" stop-color="white"/>
</linearGradient>
<linearGradient id="paint4_linear_1488_72" x1="37.6707" y1="19.9081" x2="36.3015" y2="15.9036" gradientUnits="userSpaceOnUse">
<stop stop-color="#EFEDFE"/>
<stop offset="1" stop-color="white"/>
</linearGradient>
<linearGradient id="paint5_linear_1488_72" x1="37.4049" y1="22.5078" x2="36.9218" y2="18.8598" gradientUnits="userSpaceOnUse">
<stop stop-color="#EFEDFE"/>
<stop offset="1" stop-color="white"/>
</linearGradient>
<linearGradient id="paint6_linear_1488_72" x1="37.5726" y1="28.0136" x2="38.586" y2="23.9047" gradientUnits="userSpaceOnUse">
<stop stop-color="#EFEDFE"/>
<stop offset="1" stop-color="white"/>
</linearGradient>
<linearGradient id="paint7_linear_1488_72" x1="35.945" y1="30.0558" x2="37.5109" y2="26.7258" gradientUnits="userSpaceOnUse">
<stop stop-color="#EFEDFE"/>
<stop offset="1" stop-color="white"/>
</linearGradient>
<linearGradient id="paint8_linear_1488_72" x1="33.1117" y1="34.7807" x2="36.1858" y2="31.8721" gradientUnits="userSpaceOnUse">
<stop stop-color="#EFEDFE"/>
<stop offset="1" stop-color="white"/>
</linearGradient>
<linearGradient id="paint9_linear_1488_72" x1="30.6332" y1="35.6173" x2="33.751" y2="33.6627" gradientUnits="userSpaceOnUse">
<stop stop-color="#EFEDFE"/>
<stop offset="1" stop-color="white"/>
</linearGradient>
<linearGradient id="paint10_linear_1488_72" x1="25.6969" y1="38.0599" x2="29.8556" y2="37.2752" gradientUnits="userSpaceOnUse">
<stop stop-color="#EFEDFE"/>
<stop offset="1" stop-color="white"/>
</linearGradient>
<linearGradient id="paint11_linear_1488_72" x1="23.1604" y1="37.4249" x2="26.84" y2="37.4664" gradientUnits="userSpaceOnUse">
<stop stop-color="#EFEDFE"/>
<stop offset="1" stop-color="white"/>
</linearGradient>
<linearGradient id="paint12_linear_1488_72" x1="17.69" y1="36.8114" x2="21.6129" y2="38.3992" gradientUnits="userSpaceOnUse">
<stop stop-color="#EFEDFE"/>
<stop offset="1" stop-color="white"/>
</linearGradient>
<linearGradient id="paint13_linear_1488_72" x1="15.9028" y1="34.9072" x2="18.9761" y2="36.9311" gradientUnits="userSpaceOnUse">
<stop stop-color="#EFEDFE"/>
<stop offset="1" stop-color="white"/>
</linearGradient>
<linearGradient id="paint14_linear_1488_72" x1="11.6257" y1="31.4313" x2="14.0674" y2="34.8881" gradientUnits="userSpaceOnUse">
<stop stop-color="#EFEDFE"/>
<stop offset="1" stop-color="white"/>
</linearGradient>
<linearGradient id="paint15_linear_1488_72" x1="11.1527" y1="28.8614" x2="12.6437" y2="32.2256" gradientUnits="userSpaceOnUse">
<stop stop-color="#EFEDFE"/>
<stop offset="1" stop-color="white"/>
</linearGradient>
<linearGradient id="paint16_linear_1488_72" x1="9.43707" y1="23.6269" x2="9.62207" y2="27.8549" gradientUnits="userSpaceOnUse">
<stop stop-color="#EFEDFE"/>
<stop offset="1" stop-color="white"/>
</linearGradient>
<linearGradient id="paint17_linear_1488_72" x1="10.4264" y1="21.208" x2="9.86182" y2="24.8442" gradientUnits="userSpaceOnUse">
<stop stop-color="#EFEDFE"/>
<stop offset="1" stop-color="white"/>
</linearGradient>
<linearGradient id="paint18_linear_1488_72" x1="11.8137" y1="15.8769" x2="9.68331" y2="19.5337" gradientUnits="userSpaceOnUse">
<stop stop-color="#EFEDFE"/>
<stop offset="1" stop-color="white"/>
</linearGradient>
<linearGradient id="paint19_linear_1488_72" x1="13.9519" y1="14.3768" x2="11.5109" y2="17.1304" gradientUnits="userSpaceOnUse">
<stop stop-color="#EFEDFE"/>
<stop offset="1" stop-color="white"/>
</linearGradient>
<linearGradient id="paint20_linear_1488_72" x1="17.9972" y1="10.643" x2="14.2282" y2="12.5679" gradientUnits="userSpaceOnUse">
<stop stop-color="#EFEDFE"/>
<stop offset="1" stop-color="white"/>
</linearGradient>
<linearGradient id="paint21_linear_1488_72" x1="20.6124" y1="10.5377" x2="17.0703" y2="11.5349" gradientUnits="userSpaceOnUse">
<stop stop-color="#EFEDFE"/>
<stop offset="1" stop-color="white"/>
</linearGradient>
</defs>
</svg>
